<svg id="svg" version="1.1" xmlns="http://www.w3.org/2000/svg" xmlns:xlink="http://www.w3.org/1999/xlink" width="400" height="400" viewBox="0, 0, 400,400"><g id="svgg"><path id="path0" d="M287.215 193.649 C 286.502 195.932,285.332 199.150,284.614 200.800 C 282.614 205.399,280.451 212.785,279.578 218.000 C 278.512 224.363,280.190 224.028,250.809 223.743 C 226.954 223.512,226.010 223.531,220.000 224.380 C 211.438 225.590,202.528 225.796,186.600 225.151 C 179.120 224.848,170.300 224.657,167.000 224.727 C 158.638 224.904,151.580 223.924,150.195 222.395 C 149.841 222.003,148.863 219.009,148.023 215.741 C 144.944 203.768,143.300 198.800,142.418 198.800 C 142.224 198.800,141.080 201.815,139.877 205.500 C 136.600 215.538,134.106 222.036,133.131 223.073 C 132.121 224.148,126.875 224.466,126.094 223.500 C 125.573 222.856,123.796 215.147,122.758 209.025 C 121.944 204.227,121.614 203.193,120.487 201.900 C 119.730 201.033,118.269 200.993,117.582 201.821 C 117.018 202.502,116.941 202.865,115.394 212.200 C 114.101 220.006,113.785 221.288,112.896 222.359 C 111.359 224.209,98.651 224.828,74.600 224.224 C 65.129 223.987,25.595 224.500,8.902 225.076 C 4.259 225.237,3.993 225.291,3.789 226.123 C 3.401 227.711,3.901 328.052,4.315 331.600 C 5.519 341.920,7.245 347.817,10.396 352.376 C 10.785 352.939,11.696 354.345,12.419 355.500 C 13.143 356.655,13.884 357.600,14.067 357.600 C 14.250 357.600,14.400 357.807,14.400 358.061 C 14.400 358.655,16.576 361.659,18.500 363.720 C 19.325 364.604,20.000 365.481,20.000 365.668 C 20.000 366.575,33.829 379.575,35.701 380.427 C 36.305 380.703,36.800 381.078,36.800 381.262 C 36.800 381.891,48.509 389.236,51.000 390.169 C 53.723 391.188,58.491 392.110,63.000 392.488 C 70.081 393.083,326.451 393.100,333.600 392.507 C 342.656 391.756,347.901 389.764,356.400 383.848 C 358.490 382.393,360.866 380.756,361.681 380.209 C 363.047 379.291,374.418 368.185,377.580 364.681 C 379.069 363.029,380.156 361.524,383.753 356.129 C 385.047 354.188,386.428 352.130,386.823 351.556 C 389.077 348.278,391.104 341.817,391.959 335.179 C 392.561 330.512,392.582 227.760,391.982 227.389 C 391.751 227.246,389.276 227.359,386.482 227.638 C 379.678 228.319,338.540 228.305,333.400 227.620 C 331.420 227.357,323.410 227.003,315.600 226.834 C 296.977 226.432,296.094 225.880,294.421 213.600 C 293.264 205.103,290.339 192.764,288.853 190.110 C 288.610 189.675,288.135 190.702,287.215 193.649 M39.200 253.866 C 42.830 253.973,49.400 254.005,53.800 253.936 C 82.385 253.486,131.112 254.056,138.400 254.925 C 141.150 255.253,144.120 255.506,145.000 255.487 C 148.011 255.421,151.870 256.049,153.119 256.809 C 157.897 259.715,158.435 272.018,154.430 286.800 C 153.804 289.110,152.974 292.242,152.586 293.759 C 150.720 301.046,141.135 316.900,135.967 321.246 C 128.641 327.408,116.458 334.649,109.486 336.985 C 103.426 339.017,88.105 340.660,78.862 340.270 C 50.824 339.086,40.592 334.657,27.415 318.000 C 25.239 315.250,23.063 312.624,22.579 312.165 C 19.073 308.838,12.211 287.035,11.953 278.400 C 11.911 276.970,11.922 271.417,11.979 266.059 L 12.083 256.318 13.814 255.553 C 15.330 254.882,19.978 254.013,25.000 253.461 C 25.880 253.364,27.950 253.371,29.600 253.477 C 31.250 253.583,35.570 253.758,39.200 253.866 M372.489 254.271 C 378.284 254.802,378.546 255.067,379.781 261.650 C 381.019 268.247,379.032 286.988,376.180 295.623 C 373.564 303.544,365.626 315.160,359.200 320.472 C 350.314 327.817,345.973 330.444,333.000 336.328 C 322.854 340.930,312.893 341.483,293.200 338.540 C 276.925 336.107,259.236 326.445,251.201 315.600 C 250.468 314.610,248.565 312.450,246.972 310.800 C 237.756 301.252,231.713 278.377,234.645 264.135 C 235.000 262.411,235.413 260.074,235.562 258.942 C 236.071 255.073,236.499 254.914,248.800 254.024 C 254.595 253.604,367.678 253.831,372.489 254.271 M243.750 263.386 C 242.319 267.114,247.231 292.169,250.021 295.373 C 250.608 296.048,251.410 297.230,251.802 298.000 C 259.261 312.650,276.387 322.616,301.200 326.746 C 305.620 327.481,312.402 327.690,316.600 327.220 C 318.800 326.974,322.220 326.620,324.200 326.435 C 330.374 325.857,337.293 323.047,340.964 319.627 C 342.084 318.584,343.900 317.128,345.000 316.390 C 358.720 307.192,368.773 291.170,369.965 276.600 C 370.941 264.680,370.860 262.757,369.400 263.237 C 369.180 263.309,362.430 263.465,354.400 263.584 L 339.800 263.800 339.549 267.645 C 338.762 279.696,328.252 287.400,312.600 287.400 C 296.767 287.400,288.127 280.773,286.266 267.200 L 285.800 263.800 266.200 263.559 C 255.420 263.427,246.015 263.188,245.300 263.028 C 244.287 262.801,243.944 262.880,243.750 263.386 M113.340 264.721 L 111.680 264.842 111.391 268.104 C 110.183 281.749,97.245 295.236,85.364 295.236 C 72.403 295.236,56.920 281.797,53.378 267.471 C 52.942 265.708,52.045 265.600,37.806 265.600 L 24.464 265.600 23.860 267.500 C 23.468 268.734,23.164 271.993,22.992 276.800 C 22.080 302.266,36.288 321.124,59.600 325.389 C 61.470 325.731,64.530 326.443,66.400 326.971 C 81.328 331.187,107.040 327.450,118.200 319.443 C 119.300 318.653,121.445 317.180,122.968 316.168 C 127.772 312.975,132.813 306.965,138.592 297.538 C 142.288 291.509,146.021 278.328,146.681 268.972 L 146.919 265.600 142.714 265.600 C 140.401 265.600,137.540 265.398,136.355 265.151 C 134.400 264.744,117.389 264.426,113.340 264.721 M200.285 277.700 C 201.417 279.177,202.867 287.691,203.775 298.200 C 204.099 301.940,204.595 307.520,204.877 310.600 C 205.974 322.540,205.282 342.673,203.547 349.346 C 202.703 352.589,199.961 353.761,197.722 351.835 L 196.600 350.869 196.493 318.987 C 196.366 281.306,196.632 277.200,199.200 277.200 C 199.586 277.200,200.074 277.425,200.285 277.700 " stroke="none" fill="#faf4e7" fill-rule="evenodd"></path><path id="path1" d="M69.060 4.674 C 68.907 4.826,67.121 5.096,65.091 5.272 C 58.418 5.853,51.951 7.158,49.569 8.405 C 35.873 15.572,22.246 27.884,13.273 41.200 C 10.017 46.032,7.600 50.147,7.600 50.857 C 7.600 51.192,7.474 51.592,7.321 51.746 C 6.536 52.531,5.293 58.511,4.318 66.200 C 3.904 69.465,3.454 225.892,3.861 224.900 C 4.010 224.537,5.459 224.399,9.133 224.397 C 11.920 224.395,16.264 224.211,18.786 223.987 C 23.895 223.535,78.680 223.399,87.200 223.817 C 93.205 224.112,106.094 223.475,109.796 222.701 C 112.628 222.109,113.128 221.393,113.616 217.234 C 113.786 215.785,114.322 212.710,114.807 210.400 C 115.292 208.090,115.816 205.229,115.972 204.042 C 116.376 200.962,118.459 199.547,120.770 200.784 C 121.897 201.387,123.074 204.671,123.572 208.600 C 123.965 211.701,124.718 215.142,126.438 221.700 L 126.831 223.200 129.353 223.200 C 131.304 223.200,132.029 223.031,132.549 222.456 C 133.333 221.590,136.992 212.006,139.289 204.800 C 141.630 197.457,141.591 197.542,142.557 197.680 C 143.771 197.853,145.574 202.637,148.007 212.149 C 150.462 221.745,150.524 221.910,151.893 222.458 C 154.312 223.428,159.589 224.000,165.800 223.965 C 169.320 223.945,178.680 224.147,186.600 224.414 C 202.231 224.941,212.032 224.752,219.208 223.786 C 222.903 223.289,228.831 223.157,249.552 223.109 C 281.236 223.036,277.440 224.330,279.970 212.740 C 280.626 209.737,281.809 205.687,282.600 203.740 C 283.391 201.793,284.964 197.545,286.095 194.300 C 288.633 187.023,289.006 186.832,290.561 192.016 C 292.522 198.549,294.384 206.741,295.038 211.712 C 296.832 225.345,297.271 225.673,314.000 225.878 C 322.079 225.976,328.024 226.252,331.600 226.693 C 338.838 227.585,377.893 227.672,386.700 226.815 L 392.400 226.261 392.397 146.430 C 392.393 63.322,392.375 62.281,390.776 56.200 C 390.544 55.320,390.214 54.058,390.041 53.395 C 387.643 44.188,371.086 24.276,358.682 15.683 C 347.194 7.723,344.601 6.706,331.800 5.139 C 327.753 4.644,69.547 4.186,69.060 4.674 M19.454 255.059 C 17.284 255.372,14.884 255.889,14.120 256.208 L 12.731 256.788 12.814 260.694 C 12.859 262.842,12.760 267.406,12.593 270.837 C 11.968 283.673,18.017 306.032,23.801 312.264 C 24.584 313.109,25.983 314.790,26.908 316.000 C 34.188 325.516,38.671 329.603,45.574 333.014 C 51.242 335.816,60.438 338.394,64.800 338.404 C 65.790 338.407,69.708 338.758,73.506 339.185 C 83.487 340.307,100.639 338.939,109.105 336.345 C 116.537 334.068,133.431 323.363,138.236 317.885 C 143.702 311.654,150.793 298.360,152.362 291.400 C 152.809 289.420,153.628 286.144,154.183 284.120 C 158.089 269.876,156.709 258.324,150.920 256.799 C 145.385 255.342,101.247 254.340,60.400 254.745 C 52.370 254.824,40.760 254.799,34.600 254.690 C 26.144 254.539,22.433 254.630,19.454 255.059 M250.000 254.826 C 237.409 255.583,236.617 255.846,236.219 259.400 C 236.095 260.500,235.771 262.390,235.499 263.600 C 232.437 277.217,238.579 300.988,247.541 310.200 C 249.254 311.960,251.393 314.390,252.296 315.600 C 260.216 326.215,276.384 334.953,293.000 337.599 C 303.220 339.227,305.167 339.399,313.000 339.374 C 321.581 339.346,325.333 338.696,331.200 336.224 C 360.235 323.987,375.546 306.566,377.978 283.000 C 379.728 266.049,379.761 265.419,379.061 262.531 C 378.696 261.029,378.398 259.383,378.399 258.874 C 378.402 256.379,377.007 255.552,372.000 255.079 C 367.324 254.638,256.936 254.408,250.000 254.826 M265.400 262.623 C 289.268 262.890,286.629 262.417,286.981 266.495 C 287.138 268.313,287.627 270.875,288.068 272.190 C 295.637 294.759,337.672 290.619,338.727 267.200 C 338.826 265.007,339.089 263.276,339.349 263.106 C 339.597 262.944,345.560 262.806,352.600 262.798 C 359.640 262.790,366.562 262.616,367.982 262.411 C 371.568 261.892,371.645 261.995,371.386 266.948 C 370.688 280.336,370.413 282.392,368.767 286.503 C 363.094 300.673,357.846 307.661,346.200 316.550 C 344.000 318.229,341.258 320.375,340.107 321.318 C 338.799 322.389,336.474 323.648,333.907 324.676 C 328.226 326.951,328.581 326.852,324.800 327.201 C 322.930 327.373,319.090 327.732,316.266 327.999 C 291.287 330.363,262.138 317.517,251.823 299.600 C 251.000 298.170,249.964 296.608,249.521 296.130 C 247.633 294.088,244.356 281.854,243.594 274.000 C 243.348 271.470,242.993 267.962,242.805 266.204 C 242.405 262.475,242.699 261.806,244.577 262.168 C 245.250 262.297,254.620 262.502,265.400 262.623 M134.400 264.048 C 135.390 264.283,138.720 264.594,141.800 264.738 L 147.400 265.000 147.523 267.168 C 147.667 269.696,146.678 276.500,145.542 280.800 C 142.015 294.147,140.917 296.397,132.168 308.200 C 127.954 313.885,128.903 313.065,117.800 320.604 C 112.626 324.117,104.211 326.942,95.200 328.193 C 92.670 328.544,89.396 329.004,87.923 329.215 C 81.696 330.110,72.386 329.499,66.596 327.816 C 65.477 327.491,62.409 326.782,59.780 326.241 C 34.602 321.064,20.652 301.834,22.175 274.400 C 22.367 270.935,22.707 268.687,23.283 267.077 L 24.115 264.754 38.444 264.877 C 54.621 265.016,53.446 264.760,54.608 268.400 C 60.124 285.675,78.629 298.344,91.379 293.573 C 100.885 290.017,109.858 278.142,110.318 268.510 C 110.546 263.744,109.894 264.035,120.632 263.900 C 125.674 263.836,130.430 263.747,131.200 263.702 C 131.970 263.657,133.410 263.812,134.400 264.048 M198.273 280.300 C 198.147 281.345,197.870 283.460,197.657 285.000 C 196.953 290.103,196.905 348.796,197.605 350.163 C 198.917 352.728,201.205 352.596,202.403 349.885 C 205.792 342.220,204.700 295.810,200.820 282.600 C 200.626 281.940,200.354 280.725,200.216 279.900 C 199.823 277.559,198.572 277.817,198.273 280.300 " stroke="none" fill="#040404" fill-rule="evenodd"></path><path id="path2" d="M288.000 188.824 C 288.000 189.057,288.160 189.149,288.355 189.028 C 289.026 188.613,289.723 190.293,291.469 196.530 C 291.581 196.932,291.758 197.176,291.861 197.072 C 292.381 196.552,289.440 188.400,288.732 188.400 C 288.329 188.400,288.000 188.591,288.000 188.824 M286.000 194.695 C 285.053 197.503,283.968 200.430,283.590 201.200 C 283.212 201.970,282.784 203.050,282.640 203.600 C 282.495 204.150,282.912 203.474,283.565 202.098 C 284.833 199.426,288.122 189.989,287.872 189.739 C 287.790 189.656,286.947 191.886,286.000 194.695 M141.286 198.680 C 140.491 200.764,139.919 202.853,140.096 203.029 C 140.193 203.126,140.602 202.115,141.005 200.783 C 142.574 195.602,144.048 198.275,147.819 213.138 C 150.044 221.909,150.179 222.245,151.703 222.776 C 152.378 223.011,153.000 223.134,153.085 223.048 C 153.171 222.962,152.691 222.701,152.018 222.466 C 150.520 221.944,150.500 221.894,148.007 212.149 C 144.781 199.538,142.615 195.198,141.286 198.680 M292.068 198.600 C 292.062 199.040,292.211 199.760,292.400 200.200 C 292.838 201.219,292.838 200.168,292.400 198.800 C 292.143 197.996,292.077 197.957,292.068 198.600 M116.982 201.382 C 116.222 202.142,116.011 202.752,116.047 204.082 L 116.094 205.800 116.419 203.865 C 116.774 201.747,117.619 200.833,119.238 200.813 C 121.408 200.786,122.508 203.347,123.416 210.537 C 123.550 211.602,123.746 212.387,123.851 212.282 C 124.252 211.881,123.078 204.912,122.302 203.084 C 121.079 200.207,118.865 199.498,116.982 201.382 M292.836 201.419 C 292.816 201.649,293.143 203.449,293.561 205.419 C 293.980 207.388,294.460 210.080,294.629 211.400 C 294.797 212.720,295.010 213.473,295.102 213.073 C 295.296 212.228,294.250 205.915,293.432 203.000 C 293.124 201.900,292.855 201.188,292.836 201.419 M139.086 205.686 C 138.721 206.825,138.490 207.823,138.571 207.904 C 138.652 207.985,139.025 207.129,139.400 206.000 C 139.775 204.871,140.006 203.873,139.915 203.781 C 139.823 203.690,139.450 204.547,139.086 205.686 M281.282 207.261 C 280.856 208.658,280.404 210.520,280.277 211.400 L 280.045 213.000 280.465 211.600 C 280.696 210.830,281.235 209.054,281.663 207.654 C 282.091 206.253,282.354 205.021,282.248 204.915 C 282.143 204.809,281.708 205.865,281.282 207.261 M115.429 207.029 C 115.281 207.615,115.238 208.172,115.332 208.266 C 115.427 208.360,115.624 207.958,115.771 207.371 C 115.919 206.785,115.962 206.228,115.868 206.134 C 115.773 206.040,115.576 206.442,115.429 207.029 M136.657 212.457 C 135.854 214.697,135.265 216.598,135.348 216.681 C 135.431 216.764,136.168 215.011,136.986 212.786 C 137.803 210.560,138.392 208.659,138.295 208.562 C 138.198 208.464,137.461 210.217,136.657 212.457 M114.618 211.018 C 114.465 212.039,114.430 212.963,114.540 213.073 C 114.650 213.183,114.865 212.439,115.018 211.418 C 115.171 210.398,115.206 209.473,115.096 209.363 C 114.986 209.253,114.771 209.998,114.618 211.018 M124.025 213.240 C 123.990 214.127,125.952 221.962,126.434 222.864 C 127.062 224.037,131.562 223.919,132.703 222.700 C 133.651 221.688,135.296 218.089,135.092 217.475 C 135.019 217.256,134.553 218.135,134.057 219.430 C 132.739 222.877,132.335 223.200,129.346 223.200 C 126.919 223.200,126.804 223.155,126.540 222.100 C 125.256 216.975,124.046 212.713,124.025 213.240 M279.422 214.622 C 279.272 215.425,279.228 216.162,279.326 216.260 C 279.424 216.357,279.627 215.781,279.778 214.978 C 279.928 214.175,279.972 213.438,279.874 213.340 C 279.776 213.243,279.573 213.819,279.422 214.622 M113.982 213.833 C 113.678 220.183,112.828 222.067,109.997 222.661 C 108.308 223.016,108.094 223.132,109.074 223.161 C 110.835 223.215,112.244 222.610,112.982 221.483 C 113.608 220.528,114.628 214.095,114.219 213.685 C 114.098 213.565,113.992 213.632,113.982 213.833 M295.228 215.433 C 295.244 216.295,295.409 217.360,295.596 217.800 C 295.808 218.298,295.851 217.769,295.712 216.400 C 295.444 213.765,295.189 213.257,295.228 215.433 M278.854 217.713 C 278.762 219.601,277.710 221.545,276.324 222.390 C 275.596 222.834,275.211 223.198,275.469 223.199 C 277.122 223.204,279.468 219.509,279.083 217.507 C 278.934 216.730,278.901 216.759,278.854 217.713 M296.800 220.987 C 296.800 221.175,297.244 222.087,297.786 223.013 C 299.584 226.081,299.909 226.141,315.200 226.232 L 328.600 226.312 315.200 226.024 C 299.988 225.696,300.007 225.700,297.977 222.500 C 297.330 221.479,296.800 220.798,296.800 220.987 M250.120 223.098 C 252.055 223.172,255.115 223.171,256.920 223.097 C 258.724 223.023,257.140 222.963,253.400 222.964 C 249.660 222.964,248.184 223.025,250.120 223.098 M37.200 223.600 L 21.000 223.814 36.400 223.860 C 44.870 223.885,54.230 223.778,57.200 223.621 L 62.600 223.337 58.000 223.362 C 55.470 223.375,46.110 223.482,37.200 223.600 M71.800 223.616 L 62.600 223.831 74.000 223.869 C 80.270 223.890,85.220 223.853,85.000 223.787 C 83.936 223.466,80.218 223.418,71.800 223.616 M101.000 223.600 L 96.600 223.842 100.800 223.893 C 103.110 223.921,105.360 223.789,105.800 223.600 C 106.240 223.411,106.330 223.279,106.000 223.307 C 105.670 223.335,103.420 223.467,101.000 223.600 M155.000 223.623 C 155.880 223.805,157.050 223.944,157.600 223.931 C 158.241 223.916,158.026 223.789,157.000 223.577 C 156.120 223.395,154.950 223.256,154.400 223.269 C 153.759 223.284,153.974 223.411,155.000 223.623 M220.800 223.600 L 219.000 223.880 220.600 223.900 C 221.480 223.911,222.650 223.776,223.200 223.600 C 224.463 223.195,223.402 223.195,220.800 223.600 M266.900 223.497 C 268.385 223.574,270.815 223.574,272.300 223.497 C 273.785 223.420,272.570 223.357,269.600 223.357 C 266.630 223.357,265.415 223.420,266.900 223.497 M10.217 224.300 C 4.361 224.420,3.600 224.593,3.618 225.800 C 3.622 226.020,3.808 225.885,4.032 225.500 C 4.388 224.888,5.155 224.796,10.120 224.765 C 13.244 224.746,16.700 224.590,17.800 224.418 L 19.800 224.107 18.000 224.142 C 17.010 224.161,13.508 224.232,10.217 224.300 M88.515 224.296 C 89.788 224.376,91.768 224.375,92.915 224.294 C 94.062 224.214,93.020 224.149,90.600 224.150 C 88.180 224.151,87.242 224.216,88.515 224.296 M161.312 224.295 C 162.364 224.377,163.984 224.376,164.912 224.292 C 165.840 224.208,164.980 224.141,163.000 224.142 C 161.020 224.143,160.260 224.212,161.312 224.295 M176.400 224.419 C 179.554 224.710,193.053 224.904,192.767 224.655 C 192.675 224.576,188.280 224.428,183.000 224.327 C 177.720 224.226,174.750 224.267,176.400 224.419 M213.000 224.400 L 209.800 224.653 213.000 224.687 C 214.760 224.705,216.650 224.576,217.200 224.400 L 218.200 224.080 217.200 224.113 C 216.650 224.132,214.760 224.261,213.000 224.400 M197.500 225.098 C 199.755 225.170,203.445 225.170,205.700 225.098 C 207.955 225.027,206.110 224.969,201.600 224.969 C 197.090 224.969,195.245 225.027,197.500 225.098 M329.800 226.783 C 331.008 227.107,335.077 227.328,334.767 227.052 C 334.675 226.971,333.250 226.804,331.600 226.682 C 329.769 226.547,329.068 226.586,329.800 226.783 M386.600 226.800 C 384.708 227.060,384.686 227.075,386.200 227.094 C 387.080 227.104,388.880 226.979,390.200 226.815 L 392.600 226.518 390.600 226.522 C 389.500 226.524,387.700 226.649,386.600 226.800 M342.000 227.647 C 350.072 227.969,368.645 227.971,374.000 227.651 C 376.310 227.513,368.660 227.400,357.000 227.400 C 345.190 227.400,338.546 227.509,342.000 227.647 M23.193 254.192 C 12.242 255.384,11.363 256.127,12.775 263.000 C 12.989 264.040,13.030 263.237,12.892 260.705 L 12.680 256.809 14.065 256.231 C 16.063 255.396,23.795 254.400,28.280 254.400 C 30.400 254.400,32.058 254.334,31.967 254.254 C 31.434 253.788,27.183 253.758,23.193 254.192 M38.800 254.239 C 40.010 254.312,42.710 254.565,44.800 254.801 C 47.432 255.098,52.719 255.113,62.000 254.852 L 75.400 254.474 60.600 254.483 C 52.460 254.488,43.730 254.405,41.200 254.299 C 38.670 254.193,37.590 254.166,38.800 254.239 M86.300 254.298 C 88.335 254.371,91.665 254.371,93.700 254.298 C 95.735 254.225,94.070 254.166,90.000 254.166 C 85.930 254.166,84.265 254.225,86.300 254.298 M250.200 254.418 C 242.652 254.856,238.394 255.287,238.179 255.633 C 238.071 255.809,238.571 255.883,239.291 255.797 C 240.011 255.712,242.490 255.408,244.800 255.121 C 249.685 254.515,362.506 254.348,370.200 254.936 C 377.018 255.457,378.368 256.154,378.428 259.189 C 378.444 259.965,378.612 260.960,378.803 261.400 C 379.276 262.493,378.854 258.522,378.355 257.189 C 377.770 255.626,376.524 255.103,372.403 254.693 C 367.964 254.250,257.373 254.002,250.200 254.418 M33.305 254.687 C 33.914 254.779,34.814 254.777,35.305 254.682 C 35.797 254.587,35.300 254.511,34.200 254.514 C 33.100 254.517,32.697 254.595,33.305 254.687 M101.000 254.645 C 101.440 254.728,109.990 254.977,120.000 255.197 C 130.010 255.418,138.830 255.712,139.600 255.850 C 140.370 255.989,140.883 255.977,140.739 255.824 C 140.116 255.158,131.874 254.749,116.600 254.626 C 107.580 254.553,100.560 254.562,101.000 254.645 M150.000 256.619 C 153.012 257.262,154.459 258.600,155.387 261.600 C 155.694 262.590,155.953 263.040,155.963 262.600 C 156.043 259.244,152.216 255.921,148.400 256.034 C 147.850 256.050,148.570 256.313,150.000 256.619 M236.627 256.770 C 236.244 257.194,236.015 257.869,236.119 258.270 C 236.293 258.945,236.311 258.942,236.354 258.231 C 236.379 257.809,236.698 257.134,237.062 256.731 C 237.426 256.329,237.634 256.000,237.524 256.000 C 237.414 256.000,237.010 256.347,236.627 256.770 M235.476 261.610 C 235.330 262.155,235.227 263.050,235.246 263.600 C 235.271 264.318,235.384 264.157,235.649 263.027 C 236.055 261.295,235.900 260.025,235.476 261.610 M242.881 262.503 C 242.614 262.824,242.578 263.796,242.782 265.203 L 243.100 267.400 243.150 264.927 C 243.198 262.550,243.243 262.447,244.300 262.287 L 245.400 262.120 244.349 262.060 C 243.771 262.027,243.110 262.226,242.881 262.503 M370.300 262.412 C 370.991 262.690,371.215 263.126,371.264 264.287 L 371.328 265.800 371.491 264.474 C 371.671 263.018,371.063 261.986,370.051 262.025 C 369.610 262.043,369.691 262.168,370.300 262.412 M250.000 262.844 C 252.530 262.982,261.671 263.118,270.313 263.147 C 282.494 263.188,286.061 263.312,286.184 263.700 C 286.272 263.975,286.462 265.429,286.607 266.931 C 286.752 268.434,286.954 269.579,287.056 269.477 C 287.702 268.831,286.642 263.178,285.844 263.015 C 285.380 262.920,276.090 262.786,265.200 262.718 C 254.310 262.649,247.470 262.706,250.000 262.844 M352.800 262.803 C 345.210 262.926,338.976 263.065,338.947 263.113 C 338.917 263.161,338.818 264.955,338.727 267.100 C 338.463 273.276,335.506 278.288,329.812 282.210 C 327.343 283.910,326.925 284.421,328.900 283.323 C 334.509 280.205,338.860 273.391,339.195 267.200 L 339.400 263.400 353.867 263.200 C 361.824 263.090,368.469 262.865,368.634 262.700 C 368.799 262.535,368.408 262.440,367.767 262.490 C 367.125 262.539,360.390 262.680,352.800 262.803 M379.379 267.428 L 379.358 272.600 379.730 269.072 C 379.947 267.010,379.956 264.862,379.751 263.900 C 379.480 262.632,379.395 263.440,379.379 267.428 M130.505 263.887 C 131.114 263.979,132.014 263.977,132.505 263.882 C 132.997 263.787,132.500 263.711,131.400 263.714 C 130.300 263.717,129.897 263.795,130.505 263.887 M110.880 264.480 C 110.576 264.784,110.428 266.069,110.476 267.980 C 110.547 270.836,110.558 270.870,110.679 268.600 C 110.871 264.968,111.057 264.475,112.301 264.286 C 113.387 264.122,113.388 264.119,112.380 264.060 C 111.819 264.027,111.144 264.216,110.880 264.480 M123.700 264.291 C 124.525 264.378,125.875 264.378,126.700 264.291 C 127.525 264.205,126.850 264.134,125.200 264.134 C 123.550 264.134,122.875 264.205,123.700 264.291 M134.800 264.433 C 135.350 264.674,138.358 264.971,141.484 265.094 L 147.167 265.316 147.310 267.958 L 147.452 270.600 147.426 267.800 L 147.400 265.000 142.000 264.759 C 139.030 264.627,135.970 264.401,135.200 264.257 C 133.946 264.023,133.904 264.042,134.800 264.433 M156.200 270.054 C 156.200 273.409,156.314 275.625,156.453 274.977 C 156.786 273.424,156.792 266.053,156.460 264.876 C 156.317 264.368,156.200 266.698,156.200 270.054 M12.259 266.900 C 11.946 269.510,12.006 278.590,12.347 280.169 C 12.486 280.812,12.600 277.617,12.600 273.069 C 12.600 263.845,12.608 263.994,12.259 266.900 M23.264 267.013 C 22.568 268.832,22.413 270.022,22.469 273.136 L 22.538 277.000 22.798 272.600 C 22.952 269.989,23.313 267.640,23.685 266.824 L 24.312 265.447 36.456 265.320 C 43.135 265.250,49.659 265.330,50.953 265.497 L 53.307 265.800 54.021 268.058 C 54.850 270.677,56.729 274.582,58.468 277.300 C 59.976 279.658,60.430 279.827,59.003 277.500 C 57.231 274.608,55.344 270.701,54.609 268.400 C 53.445 264.760,54.620 265.016,38.450 264.877 L 24.128 264.754 23.264 267.013 M234.657 266.300 C 233.949 270.581,234.802 283.803,235.848 284.758 C 235.993 284.891,236.008 284.550,235.879 284.000 C 235.105 280.682,234.717 275.203,234.909 270.300 C 235.133 264.598,235.079 263.746,234.657 266.300 M370.518 273.800 C 370.243 278.365,369.777 282.651,369.432 283.781 C 369.101 284.871,368.894 285.828,368.974 285.907 C 369.827 286.760,371.414 273.892,371.133 268.400 C 371.048 266.733,370.827 268.672,370.518 273.800 M287.206 270.633 C 287.209 271.055,287.395 271.670,287.618 272.000 C 287.915 272.438,287.952 272.276,287.756 271.400 C 287.427 269.929,287.198 269.610,287.206 270.633 M243.285 271.400 C 243.277 272.060,243.410 273.500,243.582 274.600 C 243.836 276.235,243.897 276.345,243.917 275.200 C 243.930 274.430,243.797 272.990,243.620 272.000 C 243.388 270.691,243.296 270.528,243.285 271.400 M109.368 273.747 C 108.910 275.096,108.402 276.560,108.240 277.000 C 108.055 277.501,108.174 277.426,108.558 276.800 C 109.328 275.544,110.510 272.113,110.333 271.646 C 110.260 271.453,109.825 272.398,109.368 273.747 M146.448 274.302 C 146.179 276.006,145.874 277.940,145.771 278.600 C 145.624 279.535,145.660 279.623,145.934 279.000 C 146.375 277.995,147.366 271.633,147.120 271.387 C 147.020 271.286,146.717 272.598,146.448 274.302 M378.710 275.600 C 378.067 282.872,377.503 287.245,376.781 290.569 C 375.872 294.753,376.008 295.696,376.947 291.719 C 378.057 287.018,379.444 275.534,379.135 273.600 C 379.047 273.050,378.856 273.950,378.710 275.600 M288.800 274.955 C 288.800 279.115,301.773 287.439,307.792 287.140 L 309.000 287.080 307.800 286.918 C 300.664 285.953,294.015 282.208,290.663 277.266 C 288.931 274.713,288.800 274.551,288.800 274.955 M155.654 277.600 C 155.619 278.150,155.496 279.050,155.383 279.600 L 155.177 280.600 155.607 279.615 C 155.843 279.074,155.965 278.174,155.878 277.615 L 155.720 276.600 155.654 277.600 M21.873 279.100 C 21.746 280.145,21.783 282.080,21.956 283.400 C 22.239 285.561,22.271 285.372,22.278 281.500 C 22.286 276.730,22.213 276.298,21.873 279.100 M198.495 278.100 C 197.146 279.775,196.799 287.199,196.886 312.473 L 196.971 337.400 197.208 310.600 C 197.377 291.436,197.581 283.402,197.922 282.403 C 198.185 281.634,198.400 280.419,198.400 279.703 C 198.400 278.538,199.952 277.576,200.017 278.700 C 200.027 278.865,200.213 279.810,200.430 280.800 C 200.648 281.790,201.161 284.400,201.571 286.600 C 201.981 288.800,202.336 290.121,202.358 289.535 C 202.395 288.591,202.084 286.814,200.766 280.443 C 200.242 277.910,199.372 277.012,198.495 278.100 M244.229 279.000 C 244.578 281.540,246.060 287.674,246.273 287.460 C 246.452 287.282,245.180 281.385,244.362 278.600 C 244.058 277.568,244.040 277.624,244.229 279.000 M106.193 280.517 C 103.806 284.209,100.393 287.985,97.649 289.968 C 96.304 290.941,95.274 291.808,95.362 291.895 C 95.666 292.199,100.342 288.382,102.218 286.299 C 104.171 284.129,108.176 278.443,107.927 278.194 C 107.849 278.116,107.069 279.161,106.193 280.517 M61.227 281.187 C 63.844 284.594,72.145 291.982,73.371 291.996 C 73.575 291.998,72.315 290.953,70.571 289.674 C 68.827 288.395,65.702 285.560,63.627 283.374 C 61.553 281.188,60.473 280.204,61.227 281.187 M145.050 281.250 C 144.717 282.917,145.040 283.240,145.400 281.600 C 145.552 280.909,145.593 280.259,145.491 280.158 C 145.389 280.056,145.191 280.547,145.050 281.250 M154.600 282.400 C 154.448 283.091,154.414 283.747,154.524 283.857 C 154.634 283.967,154.848 283.491,155.000 282.800 C 155.152 282.109,155.186 281.453,155.076 281.343 C 154.966 281.233,154.752 281.709,154.600 282.400 M12.887 282.800 C 12.883 283.350,13.024 284.250,13.200 284.800 C 13.631 286.144,13.631 284.692,13.200 283.000 C 12.926 281.922,12.894 281.902,12.887 282.800 M144.229 284.229 C 144.081 284.815,144.038 285.372,144.132 285.466 C 144.227 285.560,144.424 285.158,144.571 284.571 C 144.719 283.985,144.762 283.428,144.668 283.334 C 144.573 283.240,144.376 283.642,144.229 284.229 M323.318 285.259 C 321.513 285.887,319.083 286.560,317.918 286.754 C 316.410 287.005,316.162 287.120,317.055 287.153 C 318.459 287.206,324.721 285.488,326.347 284.604 C 327.857 283.784,327.059 283.956,323.318 285.259 M153.289 287.497 C 152.411 290.745,151.655 295.001,152.382 292.600 C 153.439 289.108,154.492 284.759,154.322 284.588 C 154.215 284.481,153.750 285.790,153.289 287.497 M236.068 286.200 C 236.062 286.640,236.211 287.360,236.400 287.800 C 236.838 288.819,236.838 287.768,236.400 286.400 C 236.143 285.596,236.077 285.557,236.068 286.200 M13.600 286.441 C 13.600 286.757,13.939 288.272,14.352 289.808 C 14.766 291.344,15.225 293.116,15.372 293.747 C 15.519 294.378,15.725 294.808,15.830 294.703 C 16.012 294.521,14.058 286.379,13.749 286.033 C 13.667 285.942,13.600 286.125,13.600 286.441 M22.662 287.400 C 22.796 288.280,22.972 289.075,23.053 289.167 C 23.356 289.510,23.129 287.368,22.781 286.600 C 22.529 286.042,22.493 286.285,22.662 287.400 M142.673 289.673 C 142.105 291.488,141.708 293.041,141.791 293.124 C 141.874 293.207,142.410 291.793,142.982 289.982 C 143.554 288.171,143.951 286.618,143.864 286.530 C 143.777 286.443,143.241 287.857,142.673 289.673 M364.898 294.100 C 360.197 303.409,355.346 309.256,347.600 314.952 C 345.290 316.650,342.452 318.885,341.293 319.918 C 340.135 320.950,338.454 322.187,337.558 322.666 C 335.477 323.780,335.142 324.118,336.639 323.596 C 337.288 323.370,338.805 322.379,340.010 321.394 C 341.214 320.409,344.000 318.229,346.200 316.550 C 353.860 310.704,357.367 307.135,361.483 301.000 C 363.481 298.022,368.365 288.400,367.878 288.400 C 367.822 288.400,366.481 290.965,364.898 294.100 M236.856 289.200 C 236.856 289.530,237.011 290.160,237.200 290.600 C 237.417 291.104,237.544 291.178,237.544 290.800 C 237.544 290.470,237.389 289.840,237.200 289.400 C 236.983 288.896,236.856 288.822,236.856 289.200 M23.268 290.400 C 23.288 291.439,23.918 293.146,23.932 292.200 C 23.938 291.760,23.789 291.040,23.600 290.600 C 23.389 290.110,23.261 290.032,23.268 290.400 M202.491 292.200 C 202.480 293.080,202.610 294.700,202.782 295.800 C 203.031 297.403,203.096 297.522,203.107 296.400 C 203.115 295.630,202.984 294.010,202.817 292.800 C 202.552 290.884,202.510 290.807,202.491 292.200 M237.630 291.834 C 237.590 292.413,239.179 297.241,239.659 298.000 C 239.934 298.435,239.968 298.344,239.781 297.666 C 239.249 295.728,237.658 291.418,237.630 291.834 M75.200 292.800 C 75.970 293.222,76.870 293.570,77.200 293.574 C 77.530 293.579,77.015 293.226,76.056 292.791 C 73.850 291.790,73.365 291.795,75.200 292.800 M94.304 292.230 C 94.177 292.356,93.022 292.892,91.737 293.420 C 90.452 293.949,89.670 294.384,90.000 294.387 C 90.699 294.393,94.800 292.541,94.800 292.218 C 94.800 291.936,94.593 291.940,94.304 292.230 M248.009 293.241 C 248.004 293.593,248.441 294.493,248.981 295.241 C 249.520 295.988,250.717 297.860,251.640 299.400 C 257.376 308.972,262.424 313.413,274.309 319.344 C 279.057 321.713,283.166 323.416,285.000 323.774 C 285.660 323.903,284.993 323.571,283.518 323.037 C 268.284 317.516,257.842 309.670,252.244 299.538 C 251.436 298.074,250.481 296.634,250.123 296.338 C 249.766 296.042,249.146 295.080,248.745 294.200 C 248.345 293.320,248.014 292.888,248.009 293.241 M24.145 294.210 C 24.367 295.561,26.009 300.127,26.201 299.928 C 26.268 299.857,25.788 298.270,25.134 296.400 C 24.480 294.530,24.035 293.545,24.145 294.210 M78.600 294.000 C 79.040 294.189,79.760 294.338,80.200 294.332 C 80.843 294.323,80.804 294.257,80.000 294.000 C 78.632 293.562,77.581 293.562,78.600 294.000 M139.508 296.739 C 135.944 302.503,135.833 302.697,136.684 301.665 C 137.838 300.267,141.733 293.999,141.555 293.827 C 141.470 293.745,140.548 295.055,139.508 296.739 M83.570 294.774 C 84.763 294.918,86.473 294.915,87.370 294.768 C 88.494 294.583,87.820 294.502,85.200 294.506 C 82.044 294.512,81.768 294.557,83.570 294.774 M375.632 295.107 C 375.614 295.385,374.802 297.320,373.827 299.407 C 372.852 301.493,372.144 303.200,372.253 303.200 C 372.655 303.200,376.053 295.563,375.862 295.090 C 375.709 294.714,375.656 294.718,375.632 295.107 M16.006 295.833 C 16.009 296.255,16.195 296.870,16.418 297.200 C 16.715 297.638,16.752 297.476,16.556 296.600 C 16.227 295.129,15.998 294.810,16.006 295.833 M149.496 299.601 C 148.705 301.360,148.146 302.800,148.255 302.800 C 148.538 302.800,151.291 296.758,151.097 296.564 C 151.008 296.475,150.288 297.841,149.496 299.601 M203.504 303.400 C 203.618 305.600,203.776 307.475,203.856 307.567 C 204.136 307.890,203.949 302.578,203.625 301.000 C 203.412 299.961,203.369 300.802,203.504 303.400 M17.600 300.731 C 17.600 301.260,19.572 305.968,20.874 308.547 C 21.531 309.847,23.177 312.201,24.534 313.777 C 25.890 315.354,28.139 318.109,29.531 319.901 C 34.837 326.727,48.174 336.759,49.793 335.141 C 49.890 335.044,48.761 334.450,47.284 333.821 C 39.953 330.698,34.512 325.939,26.908 316.000 C 25.983 314.790,24.584 313.108,23.799 312.263 C 22.231 310.573,20.201 306.772,18.798 302.900 C 17.955 300.572,17.600 299.929,17.600 300.731 M26.400 300.570 C 26.400 300.737,27.226 302.473,28.236 304.428 C 31.669 311.074,39.215 318.167,47.087 322.145 C 50.554 323.898,50.040 323.315,46.400 321.366 C 38.844 317.321,31.658 310.422,28.567 304.248 C 26.730 300.579,26.400 300.019,26.400 300.570 M240.800 301.018 C 240.800 302.210,244.793 307.993,247.367 310.530 C 248.969 312.108,250.704 314.030,251.222 314.800 C 254.144 319.140,259.975 324.428,265.500 327.747 C 266.966 328.627,265.666 327.485,263.500 325.990 C 258.452 322.503,255.190 319.479,252.296 315.600 C 251.393 314.390,249.254 311.960,247.541 310.200 C 245.668 308.274,243.706 305.730,242.614 303.810 C 241.616 302.055,240.800 300.799,240.800 301.018 M132.625 307.030 C 129.404 311.361,128.296 312.606,125.691 314.829 C 123.764 316.472,124.873 315.899,127.135 314.082 C 128.861 312.696,136.557 302.800,135.909 302.800 C 135.833 302.800,134.355 304.703,132.625 307.030 M145.609 306.913 C 143.142 311.143,142.920 311.567,143.472 311.000 C 144.092 310.364,148.061 303.528,147.903 303.369 C 147.824 303.291,146.792 304.885,145.609 306.913 M367.372 309.874 C 360.752 319.375,349.371 328.402,337.921 333.233 C 335.747 334.151,334.033 334.966,334.112 335.045 C 334.589 335.522,344.027 330.921,348.000 328.274 C 356.913 322.337,363.169 316.771,366.479 311.834 C 367.819 309.835,369.404 307.570,370.000 306.800 C 371.096 305.385,372.148 303.600,371.886 303.600 C 371.807 303.600,369.776 306.423,367.372 309.874 M204.308 315.400 C 204.393 319.140,204.524 322.380,204.599 322.600 C 204.873 323.398,204.733 312.152,204.447 310.400 C 204.286 309.410,204.223 311.660,204.308 315.400 M140.689 314.700 C 138.648 317.605,136.776 319.555,132.984 322.724 L 131.400 324.047 133.333 322.732 C 136.301 320.713,138.839 318.099,141.135 314.697 C 143.847 310.677,143.513 310.680,140.689 314.700 M122.800 316.716 C 122.250 317.087,120.360 318.404,118.600 319.642 C 116.840 320.881,114.450 322.302,113.288 322.802 C 112.126 323.301,111.246 323.779,111.331 323.865 C 111.673 324.206,115.354 322.318,118.245 320.318 C 119.929 319.153,121.912 317.792,122.653 317.294 C 123.394 316.796,124.000 316.301,124.000 316.194 C 124.000 315.924,123.930 315.955,122.800 316.716 M204.946 327.400 C 204.947 329.600,205.014 330.449,205.095 329.287 C 205.176 328.124,205.176 326.324,205.093 325.287 C 205.011 324.249,204.945 325.200,204.946 327.400 M53.543 324.623 C 54.281 324.961,55.451 325.317,56.143 325.414 C 57.105 325.549,56.989 325.453,55.644 325.005 C 52.949 324.105,52.057 323.943,53.543 324.623 M129.000 325.446 C 127.900 326.217,125.245 327.935,123.100 329.263 C 119.104 331.737,117.689 332.950,121.100 330.977 C 125.330 328.531,132.072 323.853,131.124 324.022 C 131.056 324.034,130.100 324.675,129.000 325.446 M103.800 326.007 C 101.600 326.619,98.990 327.308,98.000 327.538 L 96.200 327.955 98.000 327.748 C 100.173 327.498,107.007 325.754,107.935 325.212 C 108.913 324.642,108.235 324.772,103.800 326.007 M289.400 325.200 C 289.840 325.389,290.560 325.544,291.000 325.544 L 291.800 325.544 291.000 325.200 C 290.560 325.011,289.840 324.856,289.400 324.856 L 288.600 324.856 289.400 325.200 M58.400 326.000 C 58.950 326.176,59.850 326.317,60.400 326.313 C 61.298 326.306,61.278 326.274,60.200 326.000 C 58.508 325.569,57.056 325.569,58.400 326.000 M294.000 326.234 C 295.210 326.534,297.100 326.868,298.200 326.977 C 299.449 327.100,298.849 326.888,296.600 326.411 C 292.484 325.539,290.705 325.417,294.000 326.234 M329.200 326.069 C 328.650 326.300,326.760 326.622,325.000 326.787 C 321.843 327.081,321.832 327.086,324.200 327.138 C 326.368 327.185,330.541 326.393,331.108 325.825 C 331.470 325.463,330.287 325.614,329.200 326.069 M61.633 326.547 C 61.725 326.628,62.520 326.804,63.400 326.938 C 64.515 327.107,64.758 327.071,64.200 326.819 C 63.432 326.471,61.290 326.244,61.633 326.547 M65.800 327.600 C 66.240 327.789,66.870 327.944,67.200 327.944 C 67.578 327.944,67.504 327.817,67.000 327.600 C 66.560 327.411,65.930 327.256,65.600 327.256 C 65.222 327.256,65.296 327.383,65.800 327.600 M300.433 327.344 C 300.525 327.424,301.950 327.585,303.600 327.703 C 305.358 327.828,306.103 327.788,305.400 327.606 C 304.187 327.291,300.125 327.078,300.433 327.344 M317.400 327.600 L 315.400 327.874 317.400 327.890 C 318.500 327.898,319.940 327.768,320.600 327.600 L 321.800 327.295 320.600 327.310 C 319.940 327.319,318.500 327.449,317.400 327.600 M68.800 328.400 C 69.350 328.576,70.160 328.720,70.600 328.720 C 71.233 328.720,71.192 328.654,70.400 328.400 C 69.850 328.224,69.040 328.080,68.600 328.080 C 67.967 328.080,68.008 328.146,68.800 328.400 M91.600 328.407 C 90.979 328.611,91.509 328.651,93.000 328.512 C 94.320 328.389,95.475 328.224,95.567 328.144 C 95.889 327.865,92.588 328.084,91.600 328.407 M266.400 328.155 C 266.400 328.437,273.210 332.123,273.393 331.940 C 273.475 331.859,271.935 330.928,269.971 329.872 C 268.007 328.816,266.400 328.044,266.400 328.155 M309.911 328.293 C 310.851 328.378,312.291 328.377,313.111 328.291 C 313.930 328.205,313.160 328.136,311.400 328.137 C 309.640 328.139,308.970 328.209,309.911 328.293 M73.400 329.205 C 74.982 329.550,79.089 329.739,78.767 329.451 C 78.675 329.370,77.070 329.202,75.200 329.079 C 72.772 328.920,72.257 328.956,73.400 329.205 M85.200 329.200 C 83.201 329.621,85.252 329.638,87.600 329.220 C 89.224 328.932,89.263 328.900,88.000 328.903 C 87.230 328.904,85.970 329.038,85.200 329.200 M204.483 335.044 C 204.437 337.048,204.315 339.568,204.211 340.644 L 204.022 342.600 204.426 340.668 C 204.648 339.606,204.770 337.086,204.698 335.068 L 204.566 331.400 204.483 335.044 M114.493 334.034 C 112.455 335.115,110.980 336.000,111.217 336.000 C 111.712 336.000,118.800 332.417,118.800 332.166 C 118.800 331.818,118.091 332.126,114.493 334.034 M274.200 332.288 C 274.763 332.833,279.188 334.546,279.424 334.309 C 279.531 334.202,278.490 333.685,277.110 333.161 C 275.729 332.637,274.420 332.139,274.200 332.054 C 273.933 331.951,273.933 332.029,274.200 332.288 M281.044 334.982 C 281.728 335.298,282.808 335.659,283.444 335.784 C 284.433 335.979,284.398 335.933,283.200 335.463 C 281.040 334.616,279.513 334.276,281.044 334.982 M286.400 336.647 C 287.390 336.959,288.920 337.304,289.800 337.412 C 290.680 337.520,290.050 337.254,288.400 336.821 C 284.947 335.915,283.749 335.810,286.400 336.647 M328.400 337.211 C 326.530 337.831,325.280 338.352,325.622 338.369 C 326.409 338.408,331.272 336.812,331.780 336.348 C 332.250 335.918,332.470 335.862,328.400 337.211 M55.600 337.137 C 56.248 337.556,60.548 338.430,61.573 338.352 C 61.918 338.326,61.120 338.080,59.800 337.806 C 58.480 337.532,56.860 337.182,56.200 337.028 C 55.361 336.833,55.181 336.866,55.600 337.137 M106.000 337.200 C 105.196 337.457,105.157 337.523,105.800 337.532 C 106.240 337.538,106.960 337.389,107.400 337.200 C 108.419 336.762,107.368 336.762,106.000 337.200 M101.400 338.000 C 99.737 338.423,101.374 338.442,103.400 338.023 C 104.745 337.745,104.809 337.692,103.800 337.693 C 103.140 337.694,102.060 337.832,101.400 338.000 M292.600 338.000 C 293.260 338.168,294.340 338.305,295.000 338.305 L 296.200 338.305 295.000 338.000 C 294.340 337.832,293.260 337.695,292.600 337.695 L 291.400 337.695 292.600 338.000 M65.400 338.813 C 66.940 338.971,69.100 339.097,70.200 339.092 L 72.200 339.082 69.800 338.785 C 68.480 338.621,66.320 338.496,65.000 338.506 L 62.600 338.526 65.400 338.813 M94.200 338.800 L 92.600 339.086 94.000 339.104 C 94.770 339.113,96.390 338.984,97.600 338.817 L 99.800 338.513 97.800 338.513 C 96.700 338.513,95.080 338.642,94.200 338.800 M296.833 338.551 C 296.925 338.634,298.260 338.802,299.800 338.925 C 301.566 339.065,302.157 339.027,301.400 338.821 C 300.184 338.490,296.527 338.274,296.833 338.551 M322.600 338.800 C 321.511 339.077,321.493 339.107,322.400 339.125 C 322.950 339.135,323.760 338.989,324.200 338.800 C 325.186 338.376,324.266 338.376,322.600 338.800 M73.800 339.587 C 75.003 339.906,79.480 340.129,79.167 339.854 C 79.075 339.774,77.560 339.609,75.800 339.488 C 73.906 339.359,73.090 339.399,73.800 339.587 M85.800 339.600 L 82.200 339.849 85.600 339.877 C 87.470 339.893,89.540 339.768,90.200 339.600 C 91.658 339.229,91.167 339.229,85.800 339.600 M304.617 339.653 C 306.223 339.996,318.830 340.012,319.682 339.672 C 320.057 339.522,316.555 339.400,311.899 339.400 C 307.243 339.400,303.966 339.514,304.617 339.653 M203.664 344.250 C 203.629 344.938,203.511 346.108,203.401 346.850 L 203.203 348.200 203.624 346.858 C 203.855 346.120,203.973 344.950,203.886 344.258 L 203.728 343.000 203.664 344.250 M196.836 348.878 C 196.816 349.489,197.189 350.363,197.700 350.897 C 198.195 351.415,198.390 351.560,198.134 351.220 C 197.878 350.879,197.489 349.970,197.270 349.200 C 196.907 347.922,196.869 347.894,196.836 348.878 M202.339 349.997 C 201.837 351.182,201.356 351.650,200.339 351.942 C 199.603 352.154,199.327 352.344,199.726 352.364 C 201.233 352.439,203.549 350.003,203.124 348.791 C 203.056 348.596,202.703 349.139,202.339 349.997 " stroke="none" fill="#625d59" fill-rule="evenodd"></path><path id="path3" d="M262.305 223.483 C 262.802 223.579,263.522 223.575,263.905 223.475 C 264.287 223.375,263.880 223.296,263.000 223.301 C 262.120 223.305,261.807 223.387,262.305 223.483 M60.705 223.883 C 61.202 223.979,61.922 223.975,62.305 223.875 C 62.687 223.775,62.280 223.696,61.400 223.701 C 60.520 223.705,60.207 223.787,60.705 223.883 M72.080 254.298 C 73.994 254.371,77.234 254.371,79.280 254.298 C 81.326 254.226,79.760 254.166,75.800 254.165 C 71.840 254.165,70.166 254.224,72.080 254.298 M98.291 254.289 C 99.001 254.377,100.261 254.379,101.091 254.292 C 101.921 254.205,101.340 254.133,99.800 254.131 C 98.260 254.129,97.581 254.200,98.291 254.289 M47.712 254.695 C 48.764 254.777,50.384 254.776,51.312 254.692 C 52.240 254.608,51.380 254.541,49.400 254.542 C 47.420 254.543,46.660 254.612,47.712 254.695 M117.500 254.693 C 118.435 254.777,119.965 254.777,120.900 254.693 C 121.835 254.609,121.070 254.540,119.200 254.540 C 117.330 254.540,116.565 254.609,117.500 254.693 M130.100 254.676 C 130.485 254.776,131.115 254.776,131.500 254.676 C 131.885 254.575,131.570 254.493,130.800 254.493 C 130.030 254.493,129.715 254.575,130.100 254.676 M368.800 262.555 C 368.800 262.640,369.330 262.787,369.979 262.882 C 370.627 262.977,371.067 262.908,370.955 262.728 C 370.757 262.407,368.800 262.250,368.800 262.555 M251.505 263.083 C 252.002 263.179,252.722 263.175,253.105 263.075 C 253.487 262.975,253.080 262.896,252.200 262.901 C 251.320 262.905,251.007 262.987,251.505 263.083 M115.516 264.297 C 116.899 264.375,119.059 264.374,120.316 264.295 C 121.572 264.216,120.440 264.152,117.800 264.153 C 115.160 264.153,114.132 264.218,115.516 264.297 M26.305 265.483 C 26.802 265.579,27.522 265.575,27.905 265.475 C 28.287 265.375,27.880 265.296,27.000 265.301 C 26.120 265.305,25.807 265.387,26.305 265.483 M38.921 265.498 C 41.077 265.571,44.497 265.570,46.521 265.498 C 48.544 265.425,46.780 265.366,42.600 265.367 C 38.420 265.367,36.764 265.426,38.921 265.498 M110.920 267.200 C 110.920 268.410,110.995 268.905,111.087 268.300 C 111.178 267.695,111.178 266.705,111.087 266.100 C 110.995 265.495,110.920 265.990,110.920 267.200 M141.507 265.490 C 142.226 265.579,143.306 265.577,143.907 265.486 C 144.508 265.395,143.920 265.322,142.600 265.324 C 141.280 265.326,140.788 265.401,141.507 265.490 M243.324 268.200 C 243.326 269.520,243.401 270.012,243.490 269.293 C 243.579 268.574,243.577 267.494,243.486 266.893 C 243.395 266.292,243.322 266.880,243.324 268.200 M370.531 270.200 C 370.533 271.740,370.605 272.321,370.692 271.491 C 370.779 270.661,370.777 269.401,370.689 268.691 C 370.600 267.981,370.529 268.660,370.531 270.200 M333.578 279.500 L 332.200 281.000 333.700 279.622 C 335.096 278.338,335.384 278.000,335.078 278.000 C 335.012 278.000,334.337 278.675,333.578 279.500 M65.200 285.725 C 65.200 285.794,65.785 286.379,66.500 287.025 L 67.800 288.200 66.625 286.900 C 65.530 285.688,65.200 285.416,65.200 285.725 M311.111 287.493 C 312.051 287.578,313.491 287.577,314.311 287.491 C 315.130 287.405,314.360 287.336,312.600 287.337 C 310.840 287.339,310.170 287.409,311.111 287.493 M258.800 308.600 C 259.995 309.810,261.063 310.800,261.173 310.800 C 261.283 310.800,260.395 309.810,259.200 308.600 C 258.005 307.390,256.937 306.400,256.827 306.400 C 256.717 306.400,257.605 307.390,258.800 308.600 M354.000 309.400 C 353.028 310.390,352.323 311.200,352.433 311.200 C 352.543 311.200,353.428 310.390,354.400 309.400 C 355.372 308.410,356.077 307.600,355.967 307.600 C 355.857 307.600,354.972 308.410,354.000 309.400 M204.893 322.400 C 204.893 323.170,204.975 323.485,205.076 323.100 C 205.176 322.715,205.176 322.085,205.076 321.700 C 204.975 321.315,204.893 321.630,204.893 322.400 M79.891 329.489 C 80.601 329.577,81.861 329.579,82.691 329.492 C 83.521 329.405,82.940 329.333,81.400 329.331 C 79.860 329.329,79.181 329.400,79.891 329.489 " stroke="none" fill="#7c7c78" fill-rule="evenodd"></path><path id="path4" d="M288.006 189.871 C 288.011 190.416,288.097 190.467,288.346 190.073 C 288.740 189.453,288.995 190.038,290.761 195.600 C 291.425 197.690,291.969 199.130,291.970 198.800 C 291.975 197.223,289.239 189.392,288.639 189.271 C 288.239 189.190,288.002 189.413,288.006 189.871 M287.400 191.600 C 287.250 192.073,287.217 192.550,287.327 192.660 C 287.437 192.770,287.650 192.473,287.800 192.000 C 287.950 191.527,287.983 191.050,287.873 190.940 C 287.763 190.830,287.550 191.127,287.400 191.600 M285.738 196.701 C 285.080 198.625,284.407 200.560,284.243 201.000 C 284.059 201.495,284.179 201.418,284.558 200.800 C 285.302 199.585,287.352 193.619,287.109 193.375 C 287.013 193.280,286.396 194.776,285.738 196.701 M142.158 198.310 C 141.667 198.632,140.619 201.553,140.896 201.829 C 140.993 201.926,141.288 201.284,141.552 200.403 C 142.117 198.517,142.555 198.396,143.371 199.900 C 143.699 200.505,143.971 200.730,143.975 200.400 C 143.986 199.498,142.664 197.979,142.158 198.310 M292.080 200.200 C 292.080 200.640,292.224 201.450,292.400 202.000 C 292.654 202.792,292.720 202.833,292.720 202.200 C 292.720 201.760,292.576 200.950,292.400 200.400 C 292.146 199.608,292.080 199.567,292.080 200.200 M117.462 201.531 C 117.098 201.934,116.800 202.424,116.800 202.620 C 116.800 202.817,117.080 202.578,117.423 202.089 C 119.341 199.351,121.562 201.857,122.582 207.912 C 122.872 209.634,123.124 210.433,123.151 209.720 C 123.371 203.941,119.858 198.884,117.462 201.531 M144.145 201.800 C 144.936 204.968,147.959 214.873,147.978 214.355 C 148.009 213.466,144.863 202.418,144.356 201.635 C 144.012 201.104,143.978 201.131,144.145 201.800 M283.412 202.443 C 282.357 205.277,280.805 210.276,280.824 210.775 C 280.837 211.119,281.537 209.330,282.380 206.800 C 283.222 204.270,283.846 202.129,283.765 202.043 C 283.685 201.956,283.526 202.136,283.412 202.443 M292.875 203.800 C 292.886 204.240,293.032 205.140,293.200 205.800 L 293.505 207.000 293.525 205.800 C 293.535 205.140,293.389 204.240,293.200 203.800 L 292.856 203.000 292.875 203.800 M116.229 205.429 C 116.081 206.015,116.038 206.572,116.132 206.666 C 116.227 206.760,116.424 206.358,116.571 205.771 C 116.719 205.185,116.762 204.628,116.668 204.534 C 116.573 204.440,116.376 204.842,116.229 205.429 M115.453 208.436 C 115.314 209.131,115.221 210.173,115.247 210.750 C 115.272 211.328,115.455 210.827,115.652 209.639 C 116.037 207.321,115.873 206.334,115.453 208.436 M293.801 209.400 C 293.954 210.720,294.237 212.520,294.430 213.400 C 294.623 214.280,294.793 215.540,294.808 216.200 C 294.824 216.860,295.100 217.940,295.422 218.600 C 295.915 219.607,295.969 219.639,295.764 218.800 C 295.487 217.669,295.097 215.251,294.448 210.635 C 293.925 206.914,293.396 205.903,293.801 209.400 M136.998 212.901 C 133.121 223.501,133.050 223.600,129.420 223.600 C 126.481 223.600,126.199 223.369,125.572 220.445 C 125.325 219.290,125.029 218.438,124.916 218.551 C 124.637 218.830,125.606 222.875,126.101 223.500 C 126.353 223.817,127.552 224.000,129.379 224.000 C 132.656 224.000,133.443 223.483,134.551 220.600 C 136.645 215.153,139.213 207.879,139.086 207.752 C 139.003 207.670,138.064 209.987,136.998 212.901 M123.268 212.000 C 123.262 212.550,123.411 213.360,123.600 213.800 L 123.944 214.600 123.932 213.800 C 123.926 213.360,123.776 212.550,123.600 212.000 L 123.280 211.000 123.268 212.000 M280.200 212.800 C 280.048 213.491,280.014 214.147,280.124 214.257 C 280.234 214.367,280.448 213.891,280.600 213.200 C 280.752 212.509,280.786 211.853,280.676 211.743 C 280.566 211.633,280.352 212.109,280.200 212.800 M114.445 214.511 C 114.200 215.916,114.000 217.542,114.000 218.125 C 114.000 221.433,112.179 223.167,108.640 223.228 C 107.738 223.244,106.640 223.420,106.200 223.620 C 105.411 223.979,107.198 223.873,110.930 223.339 C 112.623 223.096,113.853 221.601,114.171 219.400 C 114.266 218.740,114.555 216.883,114.813 215.274 C 115.071 213.665,115.194 212.260,115.086 212.152 C 114.978 212.045,114.690 213.106,114.445 214.511 M124.068 215.600 C 124.088 216.639,124.718 218.346,124.732 217.400 C 124.738 216.960,124.589 216.240,124.400 215.800 C 124.189 215.310,124.061 215.232,124.068 215.600 M148.007 215.500 C 148.118 220.346,151.059 224.099,154.646 223.974 C 155.061 223.959,154.423 223.685,153.229 223.364 C 150.317 222.581,150.248 222.498,149.199 218.598 C 148.395 215.604,147.985 214.539,148.007 215.500 M279.476 216.010 C 279.330 216.555,279.228 217.540,279.249 218.200 C 279.280 219.157,279.359 219.036,279.642 217.600 C 280.029 215.633,279.902 214.417,279.476 216.010 M278.400 220.906 C 277.069 223.641,277.909 223.569,250.257 223.333 C 236.586 223.217,224.728 223.274,223.907 223.461 C 223.040 223.658,233.608 223.800,249.123 223.800 C 273.967 223.800,275.908 223.751,276.911 223.094 C 278.118 222.304,279.348 220.623,279.138 220.049 C 279.062 219.843,278.730 220.228,278.400 220.906 M296.219 220.800 C 297.276 224.886,299.545 226.259,305.744 226.562 C 312.172 226.877,330.388 227.054,330.134 226.800 C 330.024 226.690,323.599 226.499,315.856 226.376 C 299.229 226.111,299.459 226.162,297.280 222.200 C 296.554 220.880,296.077 220.250,296.219 220.800 M56.300 223.889 C 57.015 223.978,58.185 223.978,58.900 223.889 C 59.615 223.801,59.030 223.728,57.600 223.728 C 56.170 223.728,55.585 223.801,56.300 223.889 M18.600 224.357 C 17.056 224.591,43.943 224.505,47.600 224.263 C 48.590 224.198,42.830 224.137,34.800 224.129 C 26.770 224.120,19.480 224.223,18.600 224.357 M85.666 224.543 C 87.180 224.737,91.846 224.725,96.466 224.515 L 104.600 224.145 93.800 224.173 C 85.892 224.193,83.714 224.292,85.666 224.543 M156.656 224.390 C 156.770 224.503,161.626 224.619,167.446 224.646 C 173.267 224.673,177.932 224.599,177.815 224.481 C 177.697 224.363,172.841 224.248,167.025 224.225 C 161.208 224.202,156.543 224.276,156.656 224.390 M217.600 224.413 C 216.954 224.629,217.380 224.666,218.800 224.519 C 220.010 224.394,221.075 224.226,221.167 224.146 C 221.487 223.865,218.591 224.083,217.600 224.413 M6.716 225.097 C 8.099 225.175,10.259 225.174,11.516 225.095 C 12.772 225.016,11.640 224.952,9.000 224.953 C 6.360 224.953,5.332 225.018,6.716 225.097 M186.400 225.237 C 195.872 225.571,209.450 225.580,212.800 225.253 C 214.230 225.114,207.210 224.994,197.200 224.988 C 184.432 224.979,181.209 225.053,186.400 225.237 M389.200 226.958 C 389.200 227.045,389.905 227.183,390.766 227.265 C 391.628 227.348,392.247 227.276,392.143 227.107 C 391.953 226.800,389.200 226.660,389.200 226.958 M333.200 227.614 C 335.887 227.916,345.862 228.111,345.567 227.856 C 345.475 227.776,342.070 227.623,338.000 227.516 C 333.930 227.409,331.770 227.453,333.200 227.614 M375.600 227.600 L 371.000 227.840 377.400 227.873 C 380.920 227.892,384.970 227.775,386.400 227.614 C 389.748 227.238,382.705 227.229,375.600 227.600 M353.924 228.299 C 357.073 228.367,362.113 228.367,365.124 228.299 C 368.136 228.231,365.560 228.176,359.400 228.176 C 353.240 228.176,350.776 228.232,353.924 228.299 M22.877 253.676 C 20.829 253.902,19.251 254.185,19.370 254.304 C 19.489 254.423,21.734 254.295,24.359 254.021 C 26.984 253.746,29.732 253.660,30.466 253.829 C 32.241 254.239,46.308 254.294,44.891 253.885 C 44.291 253.712,41.280 253.601,38.200 253.639 C 35.120 253.677,31.250 253.608,29.600 253.486 C 27.950 253.365,24.925 253.450,22.877 253.676 M58.800 253.975 C 56.930 254.099,68.450 254.200,84.400 254.200 C 100.350 254.200,111.330 254.089,108.800 253.953 C 103.126 253.647,63.469 253.665,58.800 253.975 M249.200 253.977 C 247.110 254.099,273.280 254.200,307.356 254.200 C 341.431 254.200,368.611 254.075,367.756 253.923 C 365.929 253.598,254.787 253.648,249.200 253.977 M127.500 254.289 C 128.215 254.378,129.385 254.378,130.100 254.289 C 130.815 254.201,130.230 254.128,128.800 254.128 C 127.370 254.128,126.785 254.201,127.500 254.289 M16.000 254.800 C 14.656 255.231,16.108 255.231,17.800 254.800 C 18.878 254.526,18.898 254.494,18.000 254.487 C 17.450 254.483,16.550 254.624,16.000 254.800 M133.600 254.820 C 134.590 254.997,136.210 255.129,137.200 255.114 L 139.000 255.087 136.800 254.783 C 133.639 254.346,131.101 254.376,133.600 254.820 M239.581 254.860 C 238.954 255.026,239.395 255.118,240.800 255.113 C 242.010 255.109,243.540 254.966,244.200 254.796 C 245.108 254.562,244.810 254.501,242.981 254.544 C 241.651 254.575,240.121 254.717,239.581 254.860 M372.827 254.769 C 376.561 255.034,378.258 255.783,378.572 257.305 C 378.673 257.797,378.871 259.079,379.011 260.153 C 379.150 261.227,379.435 262.487,379.643 262.953 C 379.934 263.604,379.966 263.476,379.781 262.400 C 379.649 261.630,379.406 260.067,379.241 258.926 C 378.734 255.423,377.083 254.360,372.313 254.463 L 369.400 254.527 372.827 254.769 M140.200 255.613 C 141.534 255.938,149.844 256.111,149.541 255.808 C 149.436 255.702,147.021 255.550,144.175 255.469 C 141.329 255.388,139.540 255.453,140.200 255.613 M236.772 255.942 C 236.116 256.474,235.775 257.299,235.573 258.842 C 235.418 260.029,235.000 262.411,234.645 264.135 C 234.196 266.319,234.022 269.050,234.071 273.135 L 234.143 279.000 234.436 272.000 C 234.597 268.150,234.934 264.190,235.185 263.200 C 235.436 262.210,235.741 260.494,235.863 259.386 C 236.100 257.231,236.529 256.412,237.800 255.683 C 238.240 255.431,238.395 255.219,238.144 255.212 C 237.894 255.205,237.276 255.534,236.772 255.942 M12.161 256.558 C 12.043 256.865,12.008 257.810,12.083 258.658 C 12.210 260.087,12.234 260.046,12.410 258.100 C 12.604 255.956,12.541 255.567,12.161 256.558 M151.200 256.468 C 152.866 256.938,154.557 258.447,155.225 260.060 C 155.490 260.701,155.786 261.147,155.882 261.052 C 156.873 260.060,152.729 255.971,150.800 256.038 C 149.965 256.066,150.031 256.138,151.200 256.468 M12.162 264.092 L 12.124 267.000 12.501 264.849 C 12.711 263.649,12.727 262.364,12.539 261.941 C 12.312 261.435,12.187 262.149,12.162 264.092 M156.269 263.000 C 156.401 263.880,156.633 266.760,156.784 269.400 L 157.058 274.200 157.091 269.800 C 157.110 267.210,156.898 264.577,156.575 263.400 C 156.107 261.690,156.062 261.632,156.269 263.000 M243.467 262.667 C 243.320 262.813,243.229 263.668,243.264 264.567 C 243.327 266.175,243.330 266.178,243.486 264.800 C 243.574 264.030,243.939 263.175,244.299 262.900 C 244.860 262.471,244.866 262.400,244.343 262.400 C 244.008 262.400,243.613 262.520,243.467 262.667 M246.500 263.091 C 247.325 263.178,248.675 263.178,249.500 263.091 C 250.325 263.005,249.650 262.934,248.000 262.934 C 246.350 262.934,245.675 263.005,246.500 263.091 M370.254 263.070 C 370.503 263.251,370.807 263.760,370.928 264.200 C 371.101 264.831,371.132 264.795,371.074 264.031 C 371.033 263.499,370.730 262.990,370.400 262.901 C 370.004 262.794,369.954 262.851,370.254 263.070 M269.800 263.593 L 285.800 263.800 286.043 265.400 L 286.286 267.000 286.343 265.343 C 286.420 263.088,287.236 263.188,269.467 263.293 L 253.800 263.386 269.800 263.593 M339.700 263.465 C 339.348 263.607,339.222 264.636,339.273 266.933 L 339.347 270.200 339.573 267.000 L 339.800 263.800 353.400 263.592 L 367.000 263.384 353.600 263.324 C 346.230 263.290,339.975 263.354,339.700 263.465 M130.100 264.287 C 130.705 264.378,131.695 264.378,132.300 264.287 C 132.905 264.195,132.410 264.120,131.200 264.120 C 129.990 264.120,129.495 264.195,130.100 264.287 M380.114 265.800 C 380.117 266.900,380.195 267.303,380.287 266.695 C 380.379 266.086,380.377 265.186,380.282 264.695 C 380.187 264.203,380.111 264.700,380.114 265.800 M111.359 264.962 C 111.241 265.271,111.218 266.126,111.308 266.862 C 111.458 268.085,111.477 268.056,111.536 266.523 C 111.600 264.853,111.607 264.845,113.300 264.693 L 115.000 264.540 113.287 264.470 C 112.135 264.423,111.504 264.584,111.359 264.962 M122.300 264.695 C 123.455 264.776,125.345 264.776,126.500 264.695 C 127.655 264.614,126.710 264.548,124.400 264.548 C 122.090 264.548,121.145 264.614,122.300 264.695 M138.305 265.483 C 138.802 265.579,139.522 265.575,139.905 265.475 C 140.287 265.375,139.880 265.296,139.000 265.301 C 138.120 265.305,137.807 265.387,138.305 265.483 M145.955 265.493 C 146.890 265.660,146.906 265.732,146.707 268.932 C 146.559 271.324,146.603 271.843,146.872 270.868 C 147.594 268.251,147.143 265.406,146.000 265.361 C 145.020 265.324,145.019 265.326,145.955 265.493 M370.493 266.400 C 370.493 267.170,370.575 267.485,370.676 267.100 C 370.776 266.715,370.776 266.085,370.676 265.700 C 370.575 265.315,370.493 265.630,370.493 266.400 M243.720 270.000 C 243.720 271.210,243.795 271.705,243.887 271.100 C 243.978 270.495,243.978 269.505,243.887 268.900 C 243.795 268.295,243.720 268.790,243.720 270.000 M110.854 270.000 C 110.819 270.550,110.696 271.450,110.583 272.000 L 110.377 273.000 110.807 272.015 C 111.043 271.474,111.165 270.574,111.078 270.015 L 110.920 269.000 110.854 270.000 M22.944 273.600 C 22.944 275.690,23.012 276.545,23.094 275.500 C 23.176 274.455,23.176 272.745,23.094 271.700 C 23.012 270.655,22.944 271.510,22.944 273.600 M379.492 272.000 C 379.335 273.210,379.229 275.010,379.257 276.000 C 379.293 277.304,379.403 276.917,379.655 274.600 C 380.058 270.911,379.919 268.705,379.492 272.000 M56.000 273.753 C 56.000 274.182,57.190 276.400,57.421 276.400 C 57.531 276.400,57.323 275.815,56.959 275.100 C 56.217 273.640,56.000 273.336,56.000 273.753 M145.800 275.200 C 145.646 276.110,145.604 276.938,145.707 277.040 C 145.810 277.143,146.013 276.477,146.160 275.560 C 146.307 274.643,146.348 273.815,146.253 273.720 C 146.158 273.624,145.954 274.290,145.800 275.200 M244.109 275.200 C 244.109 276.190,244.187 276.595,244.282 276.100 C 244.378 275.605,244.378 274.795,244.282 274.300 C 244.187 273.805,244.109 274.210,244.109 275.200 M288.000 274.153 C 288.000 274.582,289.190 276.800,289.421 276.800 C 289.531 276.800,289.323 276.215,288.959 275.500 C 288.217 274.040,288.000 273.736,288.000 274.153 M156.282 275.550 C 156.127 276.293,156.020 277.373,156.044 277.950 C 156.073 278.642,156.210 278.387,156.447 277.200 C 156.645 276.210,156.752 275.130,156.685 274.800 C 156.619 274.470,156.438 274.808,156.282 275.550 M370.109 276.400 C 370.109 277.390,370.187 277.795,370.282 277.300 C 370.378 276.805,370.378 275.995,370.282 275.500 C 370.187 275.005,370.109 275.410,370.109 276.400 M336.000 276.800 C 335.530 277.460,335.236 278.000,335.346 278.000 C 335.456 278.000,335.930 277.460,336.400 276.800 C 336.870 276.140,337.164 275.600,337.054 275.600 C 336.944 275.600,336.470 276.140,336.000 276.800 M198.012 277.785 C 196.637 279.442,196.383 286.325,196.493 318.987 L 196.600 350.869 197.722 351.835 C 200.383 354.123,205.154 350.423,203.866 347.070 C 203.767 346.812,203.546 347.409,203.376 348.397 C 202.703 352.309,198.949 353.796,197.385 350.771 C 196.571 349.198,196.550 288.770,197.361 282.672 C 197.982 278.006,198.740 276.776,200.026 278.344 C 200.513 278.938,200.800 279.079,200.800 278.724 C 200.800 277.343,198.908 276.706,198.012 277.785 M22.546 281.400 C 22.547 283.600,22.614 284.449,22.695 283.287 C 22.776 282.124,22.776 280.324,22.693 279.287 C 22.611 278.249,22.545 279.200,22.546 281.400 M292.200 280.400 C 293.283 281.500,294.260 282.400,294.370 282.400 C 294.480 282.400,293.683 281.500,292.600 280.400 C 291.517 279.300,290.540 278.400,290.430 278.400 C 290.320 278.400,291.117 279.300,292.200 280.400 M333.506 279.811 C 332.684 280.575,332.154 281.200,332.327 281.200 C 332.501 281.200,333.254 280.570,334.000 279.800 C 335.741 278.003,335.443 278.010,333.506 279.811 M369.709 280.000 C 369.709 280.990,369.787 281.395,369.882 280.900 C 369.978 280.405,369.978 279.595,369.882 279.100 C 369.787 278.605,369.709 279.010,369.709 280.000 M378.821 278.800 C 378.570 282.392,377.911 287.676,377.421 290.029 C 377.086 291.634,376.882 293.016,376.968 293.101 C 377.518 293.652,379.529 279.854,379.066 278.705 C 378.924 278.352,378.851 278.381,378.821 278.800 M59.991 280.388 C 60.457 281.041,61.042 281.702,61.291 281.856 C 61.541 282.011,61.241 281.476,60.625 280.668 C 59.288 278.915,58.784 278.692,59.991 280.388 M244.868 279.800 C 244.862 280.240,245.011 280.960,245.200 281.400 C 245.638 282.419,245.638 281.368,245.200 280.000 C 244.943 279.196,244.877 279.157,244.868 279.800 M12.095 280.600 C 12.095 281.260,12.232 282.340,12.400 283.000 L 12.705 284.200 12.705 283.000 C 12.705 282.340,12.568 281.260,12.400 280.600 L 12.095 279.400 12.095 280.600 M155.427 281.000 C 155.260 281.880,154.630 284.400,154.028 286.600 C 152.421 292.470,151.889 294.822,152.115 295.049 C 152.226 295.159,152.695 293.664,153.157 291.725 C 153.619 289.786,154.453 286.494,155.011 284.410 C 155.568 282.325,155.958 280.345,155.878 280.010 C 155.797 279.674,155.594 280.120,155.427 281.000 M200.986 280.800 C 201.370 283.393,202.318 287.009,202.348 286.000 C 202.365 285.450,202.019 283.740,201.579 282.200 C 201.139 280.660,200.872 280.030,200.986 280.800 M234.487 280.400 C 234.491 280.950,234.632 281.940,234.800 282.600 L 235.105 283.800 235.113 282.600 C 235.117 281.940,234.976 280.950,234.800 280.400 L 234.480 279.400 234.487 280.400 M64.200 285.200 C 65.728 286.740,67.069 288.000,67.179 288.000 C 67.289 288.000,66.128 286.740,64.600 285.200 C 63.072 283.660,61.731 282.400,61.621 282.400 C 61.511 282.400,62.672 283.660,64.200 285.200 M235.268 284.400 C 235.288 285.439,235.918 287.146,235.932 286.200 C 235.938 285.760,235.789 285.040,235.600 284.600 C 235.389 284.110,235.261 284.032,235.268 284.400 M12.834 284.918 C 12.788 285.896,14.108 291.077,14.275 290.574 C 14.349 290.353,14.063 288.828,13.639 287.186 C 13.215 285.544,12.853 284.523,12.834 284.918 M102.801 285.798 C 102.286 286.348,101.939 286.864,102.032 286.946 C 102.124 287.028,102.619 286.578,103.130 285.947 C 104.276 284.535,104.074 284.444,102.801 285.798 M246.456 286.400 C 246.456 286.730,246.611 287.360,246.800 287.800 C 247.017 288.304,247.144 288.378,247.144 288.000 C 247.144 287.670,246.989 287.040,246.800 286.600 C 246.583 286.096,246.456 286.022,246.456 286.400 M303.400 286.800 C 303.840 286.989,304.470 287.144,304.800 287.144 C 305.178 287.144,305.104 287.017,304.600 286.800 C 304.160 286.611,303.530 286.456,303.200 286.456 C 302.822 286.456,302.896 286.583,303.400 286.800 M320.200 286.800 C 319.696 287.017,319.622 287.144,320.000 287.144 C 320.330 287.144,320.960 286.989,321.400 286.800 C 321.904 286.583,321.978 286.456,321.600 286.456 C 321.270 286.456,320.640 286.611,320.200 286.800 M202.400 288.044 C 202.400 288.581,202.567 290.456,202.772 292.210 C 202.976 293.965,203.271 296.840,203.426 298.600 C 203.582 300.360,203.793 301.563,203.896 301.274 C 204.095 300.716,202.843 287.516,202.564 287.233 C 202.474 287.142,202.400 287.506,202.400 288.044 M307.100 287.482 C 307.595 287.578,308.405 287.578,308.900 287.482 C 309.395 287.387,308.990 287.309,308.000 287.309 C 307.010 287.309,306.605 287.387,307.100 287.482 M316.305 287.483 C 316.802 287.579,317.522 287.575,317.905 287.475 C 318.287 287.375,317.880 287.296,317.000 287.301 C 316.120 287.305,315.807 287.387,316.305 287.483 M236.220 288.800 C 236.626 290.923,238.835 297.699,239.050 297.484 C 239.154 297.380,238.690 295.629,238.019 293.594 C 237.349 291.559,236.797 289.603,236.794 289.247 C 236.791 288.891,236.600 288.330,236.370 288.000 C 236.062 287.558,236.022 287.769,236.220 288.800 M67.964 288.535 C 68.549 289.263,70.800 290.977,70.800 290.694 C 70.800 290.606,70.035 289.926,69.100 289.183 C 68.165 288.440,67.654 288.148,67.964 288.535 M99.375 289.300 L 98.200 290.600 99.500 289.425 C 100.712 288.330,100.984 288.000,100.675 288.000 C 100.606 288.000,100.021 288.585,99.375 289.300 M365.839 291.470 C 365.614 292.173,362.153 298.524,360.646 301.000 C 360.074 301.939,360.062 302.026,360.588 301.400 C 362.108 299.590,366.613 291.280,366.263 290.930 C 366.159 290.825,365.968 291.068,365.839 291.470 M14.456 291.600 C 14.456 291.930,14.611 292.560,14.800 293.000 C 15.017 293.504,15.144 293.578,15.144 293.200 C 15.144 292.870,14.989 292.240,14.800 291.800 C 14.583 291.296,14.456 291.222,14.456 291.600 M15.256 294.400 C 15.256 294.730,15.411 295.360,15.600 295.800 C 15.817 296.304,15.944 296.378,15.944 296.000 C 15.944 295.670,15.789 295.040,15.600 294.600 C 15.383 294.096,15.256 294.022,15.256 294.400 M81.300 295.076 C 81.685 295.176,82.315 295.176,82.700 295.076 C 83.085 294.975,82.770 294.893,82.000 294.893 C 81.230 294.893,80.915 294.975,81.300 295.076 M249.994 295.803 C 251.587 297.721,251.721 297.845,251.286 296.996 C 251.059 296.553,250.452 295.834,249.937 295.398 C 249.033 294.634,249.035 294.648,249.994 295.803 M151.061 297.291 C 148.946 302.815,140.924 315.822,137.469 319.327 C 135.195 321.635,127.951 326.919,123.100 329.808 C 120.258 331.501,118.772 332.678,120.900 331.552 C 128.506 327.524,137.124 320.786,140.509 316.221 C 144.570 310.744,152.560 296.427,151.916 295.783 C 151.806 295.672,151.421 296.351,151.061 297.291 M374.988 297.891 C 374.588 298.941,373.742 300.745,373.109 301.900 C 372.476 303.055,372.050 304.000,372.162 304.000 C 372.783 304.000,376.297 296.563,375.875 296.142 C 375.787 296.054,375.388 296.841,374.988 297.891 M138.953 296.900 C 137.576 299.236,137.486 299.435,138.187 298.600 C 139.000 297.632,139.700 296.400,139.438 296.400 C 139.333 296.400,139.115 296.625,138.953 296.900 M16.056 297.200 C 16.056 297.530,16.211 298.160,16.400 298.600 C 16.617 299.104,16.744 299.178,16.744 298.800 C 16.744 298.470,16.589 297.840,16.400 297.400 C 16.183 296.896,16.056 296.822,16.056 297.200 M26.434 299.400 C 26.434 299.620,26.778 300.430,27.200 301.200 C 27.622 301.970,27.966 302.420,27.966 302.200 C 27.966 301.980,27.622 301.170,27.200 300.400 C 26.778 299.630,26.434 299.180,26.434 299.400 M17.001 300.400 C 17.614 302.438,18.883 305.651,19.020 305.513 C 19.185 305.348,17.255 299.914,16.923 299.606 C 16.801 299.493,16.836 299.850,17.001 300.400 M252.749 300.200 C 252.965 300.640,253.434 301.360,253.793 301.800 L 254.444 302.600 254.051 301.800 C 253.835 301.360,253.366 300.640,253.007 300.200 L 252.356 299.400 252.749 300.200 M240.009 300.051 C 239.947 301.714,243.522 307.227,246.979 310.800 C 248.575 312.450,250.702 314.880,251.705 316.200 C 254.624 320.040,261.265 325.972,264.518 327.645 C 265.812 328.310,265.041 327.661,260.796 324.511 C 256.703 321.474,254.332 319.131,251.550 315.376 C 250.582 314.069,248.442 311.649,246.795 309.999 C 244.599 307.798,243.295 306.037,241.909 303.399 C 240.869 301.419,240.014 299.913,240.009 300.051 M204.023 305.233 C 204.036 306.645,204.194 308.520,204.375 309.400 C 204.588 310.439,204.631 309.598,204.496 307.000 C 204.259 302.431,203.989 301.422,204.023 305.233 M133.408 305.242 C 132.601 306.365,132.132 307.165,132.366 307.021 C 132.852 306.720,135.332 303.200,135.057 303.200 C 134.957 303.200,134.215 304.119,133.408 305.242 M255.930 305.100 C 256.361 305.705,257.128 306.560,257.634 307.000 C 258.140 307.440,257.851 306.945,256.992 305.900 C 255.273 303.808,254.703 303.379,255.930 305.100 M369.149 308.100 C 367.707 310.135,365.976 312.616,365.303 313.614 C 362.874 317.216,355.295 323.548,347.204 328.735 C 342.375 331.830,341.986 332.113,343.600 331.349 C 348.127 329.206,359.765 320.540,363.325 316.661 C 365.291 314.519,372.387 304.400,371.923 304.400 C 371.840 304.400,370.592 306.065,369.149 308.100 M353.789 309.300 L 351.000 312.200 353.900 309.411 C 356.594 306.820,356.983 306.400,356.689 306.400 C 356.628 306.400,355.323 307.705,353.789 309.300 M20.712 309.249 C 21.069 310.156,21.829 311.371,22.401 311.949 C 22.974 312.527,25.226 315.250,27.406 318.000 C 35.048 327.640,44.014 334.647,50.200 335.816 C 50.860 335.941,50.104 335.516,48.521 334.871 C 41.131 331.865,33.913 326.013,28.206 318.400 C 27.134 316.970,25.325 314.720,24.186 313.400 C 23.046 312.080,21.725 310.235,21.249 309.300 C 20.148 307.137,19.872 307.111,20.712 309.249 M260.200 309.600 C 261.059 310.480,261.852 311.200,261.962 311.200 C 262.072 311.200,261.459 310.480,260.600 309.600 C 259.741 308.720,258.948 308.000,258.838 308.000 C 258.728 308.000,259.341 308.720,260.200 309.600 M31.200 308.525 C 31.200 308.594,31.785 309.179,32.500 309.825 L 33.800 311.000 32.625 309.700 C 31.530 308.488,31.200 308.216,31.200 308.525 M127.000 313.071 C 125.680 314.300,125.140 314.937,125.800 314.487 C 126.938 313.712,129.958 310.779,129.578 310.818 C 129.480 310.828,128.320 311.842,127.000 313.071 M35.400 313.200 C 36.483 314.300,37.460 315.200,37.570 315.200 C 37.680 315.200,36.883 314.300,35.800 313.200 C 34.717 312.100,33.740 311.200,33.630 311.200 C 33.520 311.200,34.317 312.100,35.400 313.200 M348.800 313.634 L 347.000 315.265 348.900 313.784 C 350.566 312.486,351.059 311.997,350.700 312.001 C 350.645 312.002,349.790 312.736,348.800 313.634 M205.000 326.000 C 205.000 338.391,205.027 338.911,205.353 332.901 C 205.558 329.142,205.558 323.494,205.353 319.501 C 205.019 312.963,205.000 313.305,205.000 326.000 M265.600 313.701 C 265.600 313.955,268.696 316.000,269.080 316.000 C 269.244 316.000,269.023 315.758,268.589 315.461 C 266.681 314.159,265.600 313.522,265.600 313.701 M119.392 318.600 C 118.076 319.590,115.886 320.981,114.525 321.691 C 113.164 322.402,112.115 323.048,112.194 323.128 C 112.475 323.409,116.395 321.229,118.673 319.525 C 121.772 317.207,122.236 316.828,121.992 316.813 C 121.878 316.806,120.708 317.610,119.392 318.600 M341.723 318.927 C 340.445 320.096,338.955 321.356,338.411 321.727 C 337.867 322.097,337.624 322.400,337.871 322.400 C 338.233 322.400,340.410 320.588,344.180 317.147 C 344.389 316.956,344.444 316.800,344.303 316.800 C 344.161 316.800,343.000 317.757,341.723 318.927 M106.600 324.800 C 105.500 325.206,104.870 325.552,105.200 325.569 C 105.530 325.586,106.700 325.248,107.800 324.818 C 110.337 323.828,109.279 323.811,106.600 324.800 M291.400 325.200 C 291.840 325.389,292.560 325.538,293.000 325.532 C 293.643 325.523,293.604 325.457,292.800 325.200 C 291.432 324.762,290.381 324.762,291.400 325.200 M102.600 326.000 C 102.096 326.217,102.022 326.344,102.400 326.344 C 102.730 326.344,103.360 326.189,103.800 326.000 C 104.304 325.783,104.378 325.656,104.000 325.656 C 103.670 325.656,103.040 325.811,102.600 326.000 M99.200 326.800 L 98.200 327.120 99.200 327.132 C 99.750 327.138,100.560 326.989,101.000 326.800 L 101.800 326.456 101.000 326.468 C 100.560 326.474,99.750 326.624,99.200 326.800 M322.291 326.689 C 323.001 326.777,324.261 326.779,325.091 326.692 C 325.921 326.605,325.340 326.533,323.800 326.531 C 322.260 326.529,321.581 326.600,322.291 326.689 M67.400 327.600 C 67.840 327.789,68.470 327.944,68.800 327.944 C 69.178 327.944,69.104 327.817,68.600 327.600 C 68.160 327.411,67.530 327.256,67.200 327.256 C 66.822 327.256,66.896 327.383,67.400 327.600 M94.800 327.600 C 93.443 327.886,93.437 327.895,94.600 327.907 C 95.260 327.915,96.250 327.776,96.800 327.600 C 98.112 327.180,96.796 327.180,94.800 327.600 M315.500 327.482 C 315.995 327.578,316.805 327.578,317.300 327.482 C 317.795 327.387,317.390 327.309,316.400 327.309 C 315.410 327.309,315.005 327.387,315.500 327.482 M309.511 327.893 C 310.451 327.978,311.891 327.977,312.711 327.891 C 313.530 327.805,312.760 327.736,311.000 327.737 C 309.240 327.739,308.570 327.809,309.511 327.893 M88.600 328.400 L 86.600 328.674 88.400 328.697 C 89.390 328.710,90.650 328.576,91.200 328.400 C 92.444 328.001,91.506 328.001,88.600 328.400 M266.200 328.629 C 268.168 330.198,279.797 335.536,280.253 335.080 C 280.337 334.997,279.099 334.428,277.502 333.816 C 275.906 333.204,272.530 331.643,270.000 330.347 C 267.470 329.051,265.760 328.278,266.200 328.629 M72.500 328.676 C 72.885 328.776,73.515 328.776,73.900 328.676 C 74.285 328.575,73.970 328.493,73.200 328.493 C 72.430 328.493,72.115 328.575,72.500 328.676 M78.716 329.097 C 80.099 329.175,82.259 329.174,83.516 329.095 C 84.772 329.016,83.640 328.952,81.000 328.953 C 78.360 328.953,77.332 329.018,78.716 329.097 M115.600 334.009 C 113.510 335.088,111.985 335.977,112.211 335.985 C 112.698 336.003,118.830 332.913,119.380 332.373 C 119.988 331.776,119.614 331.938,115.600 334.009 M339.800 332.814 C 331.679 336.695,328.457 337.839,320.800 339.559 L 319.000 339.964 321.000 339.753 C 324.537 339.381,329.296 337.999,333.400 336.153 C 339.172 333.556,342.259 332.048,341.800 332.049 C 341.580 332.049,340.680 332.394,339.800 332.814 M281.400 335.600 C 281.840 335.789,282.470 335.944,282.800 335.944 C 283.178 335.944,283.104 335.817,282.600 335.600 C 282.160 335.411,281.530 335.256,281.200 335.256 C 280.822 335.256,280.896 335.383,281.400 335.600 M55.000 337.449 C 57.294 338.299,62.003 339.097,66.400 339.383 C 68.490 339.518,71.280 339.737,72.600 339.868 C 73.920 339.999,74.896 339.994,74.770 339.856 C 74.643 339.719,71.313 339.342,67.370 339.019 C 63.426 338.695,58.776 338.064,57.036 337.615 C 53.358 336.668,52.758 336.618,55.000 337.449 M107.800 337.200 C 107.296 337.417,107.222 337.544,107.600 337.544 C 107.930 337.544,108.560 337.389,109.000 337.200 C 109.504 336.983,109.578 336.856,109.200 336.856 C 108.870 336.856,108.240 337.011,107.800 337.200 M286.686 337.173 C 287.991 337.748,293.655 338.768,298.000 339.211 C 300.090 339.424,302.610 339.711,303.600 339.850 C 304.590 339.989,305.297 339.991,305.170 339.855 C 305.044 339.719,302.524 339.330,299.570 338.991 C 296.617 338.652,292.850 338.108,291.200 337.783 C 286.148 336.786,285.658 336.720,286.686 337.173 M103.600 338.052 C 102.610 338.253,100.540 338.570,99.000 338.757 C 96.671 339.039,96.503 339.104,98.000 339.141 C 99.787 339.185,106.360 338.174,106.737 337.797 C 107.014 337.519,105.707 337.625,103.600 338.052 M90.600 339.602 C 89.919 339.776,90.785 339.818,92.600 339.698 C 94.360 339.583,95.875 339.423,95.967 339.344 C 96.275 339.077,91.812 339.291,90.600 339.602 M78.319 340.298 C 80.144 340.372,83.024 340.372,84.719 340.297 C 86.414 340.222,84.920 340.161,81.400 340.162 C 77.880 340.162,76.494 340.224,78.319 340.298 M308.918 340.298 C 310.633 340.373,313.333 340.372,314.918 340.297 C 316.503 340.221,315.100 340.159,311.800 340.160 C 308.500 340.161,307.203 340.222,308.918 340.298 M204.269 341.956 C 204.121 342.695,204.021 343.863,204.047 344.550 C 204.079 345.412,204.205 345.125,204.455 343.623 C 204.853 341.221,204.697 339.817,204.269 341.956 " stroke="none" fill="#847c74" fill-rule="evenodd"></path></g></svg>